<?xml version="1.0" encoding="UTF-8" standalone="no"?>
<!-- Created with Inkscape (http://www.inkscape.org/) -->

<svg
   width="120.54716mm"
   height="120.54665mm"
   viewBox="0 0 120.54716 120.54665"
   version="1.1"
   id="svg1"
   inkscape:version="1.3.2 (091e20ef0f, 2023-11-25, custom)"
   sodipodi:docname="none.svg"
   xmlns:inkscape="http://www.inkscape.org/namespaces/inkscape"
   xmlns:sodipodi="http://sodipodi.sourceforge.net/DTD/sodipodi-0.dtd"
   xmlns="http://www.w3.org/2000/svg"
   xmlns:svg="http://www.w3.org/2000/svg">
  <sodipodi:namedview
     id="namedview1"
     pagecolor="#505050"
     bordercolor="#ffffff"
     borderopacity="1"
     inkscape:showpageshadow="0"
     inkscape:pageopacity="0"
     inkscape:pagecheckerboard="1"
     inkscape:deskcolor="#505050"
     inkscape:document-units="mm"
     inkscape:zoom="1.0912949"
     inkscape:cx="236.87456"
     inkscape:cy="371.57692"
     inkscape:window-width="2560"
     inkscape:window-height="1492"
     inkscape:window-x="0"
     inkscape:window-y="0"
     inkscape:window-maximized="1"
     inkscape:current-layer="layer1" />
  <defs
     id="defs1" />
  <g
     inkscape:label="Ebene 1"
     inkscape:groupmode="layer"
     id="layer1"
     transform="translate(-42.465108,-50.297705)">
    <path
       id="path1"
       style="fill:#ffffff;fill-opacity:0.523327;stroke-width:0"
       d="m 102.73843,50.297705 a 60.273724,60.273724 0 0 0 -60.273322,60.273325 60.273724,60.273724 0 0 0 60.273322,60.27332 60.273724,60.273724 0 0 0 60.27384,-60.27332 60.273724,60.273724 0 0 0 -60.27384,-60.273325 z m 0,12.281938 a 47.991621,47.991621 0 0 1 47.99139,47.991387 47.991621,47.991621 0 0 1 -9.50278,28.6029 L 73.94329,72.246236 a 47.991621,47.991621 0 0 1 28.79514,-9.666593 z M 66.327218,79.535197 133.96702,146.81688 A 47.991621,47.991621 0 0 1 102.73843,158.56241 47.991621,47.991621 0 0 1 54.747046,110.57103 47.991621,47.991621 0 0 1 66.327218,79.535197 Z" />
  </g>
</svg>
